<svg width="48" height="48" viewBox="0 0 48 48" fill="none" xmlns="http://www.w3.org/2000/svg">
<rect width="48" height="48" rx="8" fill="#F3F3F3"/>
<path d="M35.0201 24.0106C35.0201 30.091 30.091 35.0201 24.0106 35.0201C17.9301 35.0201 13.001 30.091 13.001 24.0106C13.001 17.9301 17.9301 13.001 24.0106 13.001C30.091 13.001 35.0201 17.9301 35.0201 24.0106Z" fill="#D0D0D0"/>
<path fill-rule="evenodd" clip-rule="evenodd" d="M24.0105 18.4519C22.905 18.4519 22.0088 19.3481 22.0088 20.4537C22.0088 21.5592 22.905 22.4554 24.0105 22.4554C25.116 22.4554 26.0122 21.5592 26.0122 20.4537C26.0122 19.3481 25.116 18.4519 24.0105 18.4519ZM20.007 20.4537C20.007 18.2426 21.7994 16.4502 24.0105 16.4502C26.2216 16.4502 28.014 18.2426 28.014 20.4537C28.014 22.6647 26.2216 24.4572 24.0105 24.4572C21.7994 24.4572 20.007 22.6647 20.007 20.4537ZM23.9999 28.0008C21.8963 28.0008 20.0145 29.0128 18.7951 30.6078C18.4593 31.0469 17.8312 31.1307 17.3921 30.795C16.9529 30.4593 16.8691 29.8311 17.2048 29.392C18.7786 27.3335 21.2337 25.999 23.9999 25.999C26.7662 25.999 29.2213 27.3335 30.7951 29.392C31.1308 29.8311 31.047 30.4593 30.6078 30.795C30.1687 31.1307 29.5406 31.0469 29.2048 30.6078C27.9854 29.0128 26.1036 28.0008 23.9999 28.0008Z" fill="#121212"/>
</svg>
