<svg width="24" height="24" viewBox="0 0 24 24" fill="none" xmlns="http://www.w3.org/2000/svg">
<rect width="24" height="24" fill="#EAF7EB"/>
<path d="M23.0201 12.0106C23.0201 18.091 18.091 23.0201 12.0106 23.0201C5.93013 23.0201 1.00098 18.091 1.00098 12.0106C1.00098 5.93013 5.93013 1.00098 12.0106 1.00098C18.091 1.00098 23.0201 5.93013 23.0201 12.0106Z" fill="#ACDEB1"/>
<path fill-rule="evenodd" clip-rule="evenodd" d="M12.0105 6.45194C10.905 6.45194 10.0088 7.34815 10.0088 8.45368C10.0088 9.55921 10.905 10.4554 12.0105 10.4554C13.116 10.4554 14.0122 9.55921 14.0122 8.45368C14.0122 7.34815 13.116 6.45194 12.0105 6.45194ZM8.00703 8.45368C8.00703 6.24262 9.79945 4.4502 12.0105 4.4502C14.2216 4.4502 16.014 6.24262 16.014 8.45368C16.014 10.6647 14.2216 12.4572 12.0105 12.4572C9.79945 12.4572 8.00703 10.6647 8.00703 8.45368ZM11.9999 16.0008C9.89633 16.0008 8.0145 17.0128 6.79506 18.6078C6.45933 19.0469 5.83118 19.1307 5.39205 18.795C4.95292 18.4593 4.8691 17.8311 5.20483 17.392C6.77863 15.3335 9.23371 13.999 11.9999 13.999C14.7662 13.999 17.2213 15.3335 18.7951 17.392C19.1308 17.8311 19.047 18.4593 18.6078 18.795C18.1687 19.1307 17.5406 19.0469 17.2048 18.6078C15.9854 17.0128 14.1036 16.0008 11.9999 16.0008Z" fill="#2C7E34"/>
</svg>
