<svg width="24" height="24" viewBox="0 0 24 24" fill="none" xmlns="http://www.w3.org/2000/svg">
<path d="M13.8701 1.68454C12.776 0.812186 11.224 0.812186 10.1298 1.68454C9.70807 2.02078 9.43338 2.53878 9.20563 3.04527C8.88792 3.75179 8.62731 4.48433 8.35617 5.20949C8.13754 5.79418 8.08577 5.90953 8.02816 5.99056C7.90173 6.16839 7.7206 6.29999 7.5124 6.36528C7.41754 6.39503 7.29183 6.40862 6.6682 6.43587C5.89475 6.46966 5.11753 6.49114 4.34741 6.57497C3.79533 6.63507 3.2178 6.73623 2.76769 7.03343C1.59991 7.80449 1.12033 9.2805 1.61186 10.5907C1.80132 11.0957 2.20909 11.517 2.62041 11.8901C3.19418 12.4106 3.81033 12.8848 4.4162 13.3668C4.90472 13.7554 4.99843 13.8403 5.05769 13.9201C5.18774 14.0953 5.25693 14.3082 5.25469 14.5264C5.25367 14.6259 5.22775 14.7496 5.06095 15.3511C4.85408 16.0972 4.63434 16.843 4.47608 17.6013C4.36263 18.1449 4.28038 18.7255 4.42394 19.2454C4.7964 20.5943 6.05197 21.5065 7.44994 21.4439C7.98878 21.4198 8.51547 21.1622 8.99743 20.8863C9.66975 20.5014 10.3112 20.062 10.9568 19.6347C11.4773 19.2902 11.587 19.2273 11.6812 19.1956C11.888 19.126 12.1119 19.126 12.3187 19.1956C12.413 19.2273 12.5227 19.2902 13.0432 19.6347C13.6888 20.062 14.3302 20.5014 15.0025 20.8863C15.4845 21.1622 16.0112 21.4198 16.55 21.4439C17.948 21.5065 19.2036 20.5943 19.576 19.2454C19.7196 18.7255 19.6373 18.1449 19.5239 17.6013C19.3656 16.843 19.1459 16.0972 18.939 15.3511C18.7722 14.7496 18.7463 14.6259 18.7453 14.5264C18.743 14.3082 18.8122 14.0953 18.9423 13.9201C19.0015 13.8403 19.0952 13.7554 19.5838 13.3668C20.1896 12.8848 20.8058 12.4106 21.3796 11.8901C21.7909 11.517 22.1986 11.0957 22.3881 10.5907C22.8796 9.2805 22.4 7.80449 21.2323 7.03343C20.7822 6.73623 20.2046 6.63507 19.6525 6.57497C19.0739 6.51198 18.3146 6.47881 17.3693 6.43751C17.0875 6.4252 16.761 6.45103 16.4876 6.36528C16.2794 6.29999 16.0982 6.16839 15.9718 5.99056C15.8057 5.75698 15.7294 5.43848 15.6306 5.17417C15.2992 4.28799 15.0331 3.57614 14.7943 3.04527C14.5666 2.53878 14.2919 2.02078 13.8701 1.68454Z" fill="#FFC247"/>
</svg>
