<svg xmlns="http://www.w3.org/2000/svg" viewBox="0 0 653 475">
  <g fill="none" fill-rule="evenodd">
    <path fill="#FED" d="M404.872 221.928c-26.024-32.317-67.824-44.583-107.18-50.733-10.789-1.686-21.627-3.025-32.454-4.443-10.496-1.374-112.917-12.159-150.614-.098-20.25 6.48-39.929 16.015-55.27 31.001-13.553 13.239-22.167 30.878-25.982 49.33-4.208 20.348-2.333 41.422 3.421 61.278 3.05 10.523 7.231 20.701 12.2 30.458 4.868 9.561 10.259 18.93 16.958 27.34 6.74 8.462 14.621 15.673 23.903 21.246 8.562 5.14 18.014 8.588 27.59 11.293 19.14 5.408 39.09 7.85 58.942 8.274 39.547.847 78.979-7.318 116.26-20.08 18.798-6.434 37.162-14.106 55.085-22.67 19.825-9.472 39.57-20.034 54.754-36.264 13.457-14.383 21.982-32.642 22.057-52.517.072-19.246-7.684-38.53-19.67-53.415"/>
    <path fill="#F4F8FD" d="M308.382 250.014c19.833-2.369 134.526-17.594 153.535-89.86 3.862-14.683 6.843-29.636 7.79-44.788.944-15.088.247-30.308-2.345-45.209-1.317-7.568-3.13-15.054-5.476-22.367-9.031-19.587-31.685-48.354-91.34-47.782-16.252.156-75.038 2.356-88 4.552-26.206 4.44-52.399 11.885-75.75 24.825-22.165 12.283-41.507 30.111-51.608 53.727-5.692 13.305-7.995 27.57-8.327 41.976-.369 15.989 1.207 32.147 6.128 47.366 32.956 101.91 109.397 83.053 155.393 77.56"/>
    <path fill="#FFDFD7" d="M337.856 251.286c-4.927 13.048-10.582 23.12-21.886 28.882-11.75 5.99-24.844 3.142-36.921-1.78-20.93-8.53-124.365-84.607-62.481-117.51 15.856-8.432 33.577 4.829 36.003 6.138 13.385 7.234 19.547-.152 31.253-9.978 5.556-4.662 10.815-9.808 16.861-13.73 12.497-8.104 36.496-9.367 48.082 12.424 21.56 40.546-8.262 89.366-8.934 94.503"/>
    <path fill="#4B3E38" d="M285.862 144.623c-3.37.128-5.833.68-6.43.824-8.39 2.038-14.215 7.27-17.624 11.299-3.26 3.852-4.886 7.242-5.393 8.84.697-.49 1.74-1.306 2.945-2.25 3.338-2.611 8.925-6.983 17.92-13.07 3.091-2.091 6.049-4.024 8.582-5.643m-70.565 12.043c7.362 2.283 13.746 4.434 18.885 6.165 6.67 2.247 13.003 4.38 14.903 4.455-.465-.591-1.921-1.978-6.472-4.923-5.478-3.545-10.547-4.932-12.473-5.364-3.169-.712-8.61-1.464-14.843-.333m-21.626 118.93c-2.704 1.15-4.012 4.165-4.411 5.892.62-.67 1.506-1.74 2.653-3.2a19.357 19.357 0 0 0 1.758-2.691m270.65-5.07c6.121 3.568 11.71 7.02 16.417 9.928 5.937 3.667 11.578 7.152 13.513 7.791-.587-1.563-3.351-5.76-8.104-10.043-3.817-3.44-11.435-9.068-19.582-8.116-.786.092-1.533.24-2.244.44m-302.247 11.912c-1.093.13-2.02.49-2.652 1.157-.946.997-1.295 2.846-.96 5.07.289 1.905.955 3.3 1.35 3.748.813-.906 2.334-5.392 2.262-9.975m195.325-5.477c-3.145 1.764-8.441 4.694-17.508 9.396-11.525 5.977-21.18 10.985-29.472 15.133 22.757-6.735 40.196-18.849 46.98-24.53m-60.428 12.684c-2.936 1.576-10.933 7.963-13.495 12.455-.524.918-.766 1.686-.706 2.215 7.876-4.694 12.98-11.993 14.2-14.67m-69.82 15.788a27.906 27.906 0 0 1 5.076 2.656 15.406 15.406 0 0 1-3.401-5.615c-.143.287-.292.57-.446.848-.288.519-.7 1.261-1.229 2.111m18.041-7.05c-.439 1.088-.986 3.567-.876 6.269.068 1.641.398 3.766 1.515 5.266.901-1.236 1.07-3.063 1.038-4.474-.068-2.893-1.03-5.87-1.677-7.062m-25.907 6.978c-1.806 0-3.304.376-4.31 1.11-1.29.941-2.46 2.838-2.035 3.872.422 1.026 2.498 1.453 3.829 1.42 2.615-.054 5.246-1.907 7.85-5.519-.676-.21-1.337-.38-1.976-.513a16.653 16.653 0 0 0-3.358-.37m16.643 5.732a20.227 20.227 0 0 1 3.316 4.29c1.87 3.27 2.6 6.866 2.68 10.277 1.664-.98 3.508-1.794 5.25-2.312 3.15-.937 6.315-2.042 9.375-3.11 4.873-1.701 9.91-3.46 15.058-4.605 7.02-1.56 14.757-4.493 24.823-9.154-1.091.194-2.134.36-3.11.495-5.59.774-9.207.591-10.961-.561a32.606 32.606 0 0 1-4.826 2.128c-.966.334-3.637.841-9.491 1.953-17.142 3.258-20.606 2.82-22.263 1.652a5.943 5.943 0 0 1-1.15.53c-2.67.964-5.88.135-8.7-1.583m-57.617-21.004c.9 2.08 1.757 3.906 2.605 5.712 2.486 5.293 4.834 10.293 7.899 20.72l.319 1.091c.925 3.176 2.066 7.09 3.853 11.455-.374-1.588-.835-2.712-1.018-3.158-1.756-4.29-3.065-9.028-4.33-13.61-2.239-8.103-4.534-16.411-9.328-22.21m-57.54-.745c-3.612 0-6.43.707-7.102 2.15-.612 1.314-.127 5.722 17.553 18.222 10.441 7.382 21.638 13.879 22.11 14.152 9.753 5.645 19.28 10.174 26.826 12.752 1.148.392 2.21.725 3.19 1.004l-1.33-1.035a39.829 39.829 0 0 1-2.853-1.621c-6.612-4.096-10.92-8.822-13.957-12.597-2.62-2.593-4.902-5.184-7.055-8.049l-.04-.053c-3.242-4.317-7.405-8.932-11.725-12.996-5.361-5.044-8.135-7.55-12.557-9.373-4.105-1.692-9.068-2.556-13.06-2.556m119.391 39.398c-1.172.876-2.269 1.943-2.897 3.338-1.189 2.64-.512 5.7.005 6.718.669-.897 1.99-3.735 2.65-8.008a29.2 29.2 0 0 0 .242-2.048m-57.244 6.494c1.53.777 3.108 1.44 5.395 2.403.835.351 1.763.742 2.815 1.191 1.022-.092 1.65-.37 1.937-.754.417-.554.614-1.82.584-3.542-3.158-6.39-4.829-12.123-6.1-16.484l-.317-1.087c-3.03-10.311-5.354-15.258-7.813-20.495-1.315-2.8-2.654-5.649-4.13-9.395a19.593 19.593 0 0 0-3.039-2.036c-2.371-1.285-5.73-2.47-8.53-2.634.073 4.764-1.428 9.71-2.73 11.12-.367.396-.763.597-1.18.597h-.013c-.77-.008-1.468-.705-2.074-2.072-1.053-2.377-1.852-7.07.49-9.54.944-.996 2.266-1.503 3.768-1.663a14.662 14.662 0 0 0-.03-.266c-.783-6.531-5.906-13.089-14.055-17.99-7.764-4.672-17.337-7.276-25.607-6.965-8.422.316-13.775 2.299-15.072 5.582-.318.806-.63 2.19.338 4.902 2.8 7.844 11.243 12.184 14.422 13.817l.337.174c20.161 10.42 35.621 30.28 41.441 37.756.255.327.518.669.79 1.024.584.757 1.207 1.566 1.883 2.41 4.272 4.224 9.466 8.47 16.49 13.947m10.532 4.595c1.526.664 2.952 1.298 4.289 1.902a71.533 71.533 0 0 1-2.649-4.435c-.143.692-.366 1.287-.696 1.725a2.961 2.961 0 0 1-.944.808m13.927-23.167a88.42 88.42 0 0 0 2.433 10.858c1.703 5.796 3.917 13.332 9.367 19.327-.695-3.064-2.601-7.397-4.676-12.114-2.327-5.29-5.047-11.475-7.124-18.07m-6.785 26.378c5.159 2.402 8.764 4.275 11.45 5.67 4.496 2.336 5.708 2.923 6.578 2.332.481-.328.738-.875.813-1.604-6.796-6.467-9.309-15.02-11.207-21.478-2.314-7.877-3.464-16.141-3.748-24.142-.474-3.851-.546-7.736-.037-11.568l.056-.413c.392-2.848 1.432-10.415-2.77-14.3-1.488-1.376-3.764-2.487-6.014-2.395-.715 1.53-1.55 2.917-2.492 4.118-3.32 4.233-4.243 5.028-5.184 4.478-.593-.346-.587-1.133-.531-1.695.201-2.027 1.92-6.672 5.944-8.088a7.27 7.27 0 0 1 1.162-.304c4.72-11 2.735-28.395-7.678-37.15-6.8-5.72-17.27-8.302-20.745-5.117-1.822 1.67-1.883 5.06-1.937 8.052-.096 5.252 1.445 9.19 2.186 11.081l.066.169c1.523 3.905 1.807 5.529 2.237 7.988.44 2.517 1.043 5.965 3.383 13.888 1.7 5.754 3.187 10.045 4.552 13.545 7.086 5.983 9.86 16.022 12.553 25.773 1.254 4.537 2.55 9.229 4.258 13.403.275.671 1.077 2.628 1.47 5.343.159 1.1.293 2.327.333 3.519a70 70 0 0 0 5.302 8.895m-10.93-2.585 1.285.992a304.053 304.053 0 0 0 15.24 11.015 77.16 77.16 0 0 1-4.33-5.007l-.052-.066c-.057-.071-.138-.171-.24-.301a72.903 72.903 0 0 1-2.08-2.786 317.711 317.711 0 0 0-8.393-3.738l-.248-.107c-.37.018-.764.017-1.182-.002m31.453 8.326a27.659 27.659 0 0 0 2.417 1.952c6.428 4.62 12.817 5.053 24.414 5.84 3.511.237 7.49.507 12.098.932 13.37 1.234 19.376 2.613 24.202 3.721 3.855.885 6.972 1.6 12.579 1.957 4.629-4.288 10.81-9.261 22.082-14.27 14.816-6.583 25.49-7.46 35.811-8.31 11.146-.917 22.673-1.865 39.755-9.965 15.389-7.297 27.02-16.582 32.75-26.147 3.44-5.742 13.928-25.6 4.462-40.064-1.438-2.197-6.79-9.498-15.28-11.193-3.905-.78-7.181-.128-10.65.562-4.397.875-8.945 1.78-15.119-.101-1.833-.559-2.7-1.03-3.619-1.527-.963-.523-1.96-1.063-4.307-1.848-5.473-1.831-11.69-2.626-18.472-2.364-18.965.736-42.51 8.54-42.746 8.619-17.153 5.732-27.838 10.522-36.423 14.371-9.837 4.41-16.335 7.324-25.51 8.282-.761.08-7.648.869-15.714 4.124-5.86 2.366-9.877 4.124-12.164 7.374-.2 3.267-.769 6.412-1.794 9.251.39 2.108 1.262 4.156 2.58 5.883 2.734 3.58 7.942 6.627 11.589 5.31.152-.056.328-.12.519-.21-2.781-3.588-1.98-10.048-1.084-12.695.425-1.258.902-1.844 1.547-1.9.705-.061 1.298.528 1.918 1.91 1.217 2.715 2.762 9.364.092 12.735 1.45.675 5.388.812 20.665-2.09 5.432-1.033 8.418-1.6 9.268-1.894a30.526 30.526 0 0 0 4.311-1.881c-1.602-4.156 8.622-12.61 12.385-15.28 3.624-2.57 4.38-2.376 4.887-1.92.307.277.404.694.29 1.241-.457 2.17-5.85 10.779-14.828 16.265 2.76.89 9.803.172 18.502-1.869 9.757-4.726 21.58-10.858 36.588-18.642 10.37-5.377 15.793-8.43 18.706-10.07 1.17-.658 1.876-1.056 2.348-1.292.38-.19 1.27-.636 1.757.08.1.146.242.455.08.886-.568 1.524-7.022 6.89-15.374 12.154-8.025 5.058-20.878 12.037-36.537 16.56-2.288.66-4.65 1.277-6.962 1.821-13.206 6.392-22.67 10.227-31.162 12.115-5.05 1.123-10.041 2.865-14.868 4.55-3.079 1.076-6.262 2.187-9.447 3.134-1.773.528-3.662 1.386-5.322 2.418l-.432.27c-.238 5.363-1.927 9.99-3.005 11.724-.363.585-.94 1.367-1.713 1.342-.455-.012-.856-.279-1.193-.794-.972-1.49-1.615-5.34-.236-8.405.977-2.17 2.833-3.633 4.503-4.733.036-3.163-.463-7.057-2.455-10.54-2.547-4.452-7.18-7.648-11.56-9.35-2.077 2.989-5.314 6.468-9.44 6.554-1.62.038-4.576-.439-5.394-2.428-.836-2.032 1.043-4.633 2.576-5.752 1.99-1.451 5.185-1.815 9-1.025.81.169 1.677.4 2.575.695.458-.712.914-1.477 1.369-2.296a21.43 21.43 0 0 0 1.248-2.68c-.423-2.653-.143-5.374.892-7.801.293-.687.637-1.323 1.027-1.915.53-10.198-2.634-21.556-6.585-27.834-1.787-2.839-3.656-4.445-5.152-4.41-1.081.026-2.31.91-3.553 2.559-3.671 4.866-6.762 15.193-8.066 26.95a112.34 112.34 0 0 0-.61 16.333c1.385 11.018 6.149 21.848 9.884 30.34 2.83 6.434 5.014 11.4 5.1 14.68m25.632 26.315c9.097 2.486 18.596 3.23 27.85 1.48 10.286-1.945 14.402-5.902 19.613-10.91.336-.324.679-.653 1.029-.987-4.834-.39-7.79-1.069-11.37-1.89-4.778-1.097-10.723-2.462-23.98-3.685-4.588-.424-8.556-.693-12.057-.93-11.906-.808-18.464-1.252-25.278-6.15a29.624 29.624 0 0 1-1.705-1.321 3.308 3.308 0 0 1-1.287 1.655c-1.733 1.178-3.386.319-8.294-2.231a283.179 283.179 0 0 0-8.657-4.35l.263.338c.097.124.175.22.23.289l.057.071c3.044 3.848 6.691 7.594 10.796 11.075 10.242 6.48 18.275 10.685 22.305 12.683a206.762 206.762 0 0 0 10.485 4.863M652.177 475a.829.829 0 0 1-.69-.362c-10.563-15.72-23.348-26.112-37.997-30.885-8.856-2.886-14.416-2.458-20.302-2.003-5.48.421-11.144.859-19.645-1.451-12.193-3.314-17.297-8.687-25.754-17.588-6.574-6.92-15.578-16.396-31.927-28.644-16.633-12.46-30.58-20.122-42.883-26.883-21.898-12.031-30.936-14.51-33.906-15.323-7.285-1.998-22.39-5.088-41.693-3.342-20.138 1.822-32.703 7.824-47.253 14.774-13.175 6.293-28.107 13.426-51.451 18.411-8.38 1.79-18.654 3.37-31.323 1.528-5.636-.82-12.63-3-20.876-6.5-4.1-1.103-8.216-2.58-12.315-4.425a90.02 90.02 0 0 1-21.48-13.65 305.61 305.61 0 0 1-22.757-15.95l-3.448-2.661c-1.957-.382-4.246-1.02-6.864-1.914-7.646-2.611-17.278-7.188-27.123-12.886-.474-.275-11.734-6.808-22.235-14.233-13.913-9.837-19.829-16.438-18.086-20.183 2.176-4.673 14.833-3.487 22.304-.408.619.255 1.209.524 1.777.809-4.523-3.63-9.456-7.002-14.707-9.717l-.335-.171c-3.335-1.715-12.195-6.268-15.208-14.71-.872-2.442-.974-4.35-.32-6.004 1.095-2.773 4.855-6.17 16.546-6.608 17.215-.654 39.514 10.972 41.361 26.371.017.135.031.27.045.407 3.224.135 6.895 1.467 9.419 2.835.41.222.809.455 1.196.699-1.131-3.078-2.351-6.742-3.705-11.325-2.366-8.01-2.978-11.509-3.424-14.063-.414-2.366-.687-3.93-2.154-7.688l-.065-.166c-.777-1.986-2.395-6.12-2.294-11.681.06-3.309.128-7.059 2.456-9.192 4.56-4.18 16.08-.706 22.949 5.07 6.099 5.129 9.85 13.073 10.565 22.37.433 5.649-.377 11.285-2.18 15.893 2.477.131 4.866 1.345 6.465 2.824 1.548 1.431 2.482 3.246 3.023 5.152 1.639-9.866 4.468-17.85 7.597-21.998 1.578-2.093 3.206-3.174 4.84-3.213 2.152-.052 4.432 1.738 6.596 5.175 3.805 6.047 6.892 16.66 6.85 26.649 2.812-2.782 6.909-4.435 11.448-6.267 8.107-3.273 14.89-4.104 16.167-4.237 8.91-.93 15.31-3.8 25-8.145 8.618-3.864 19.345-8.673 36.577-14.431.237-.08 24.012-7.96 43.214-8.704 6.99-.27 13.406.552 19.073 2.449 2.485.831 3.595 1.433 4.573 1.963.88.477 1.638.888 3.31 1.398 5.769 1.757 10.105.894 14.298.06 3.478-.692 7.075-1.407 11.31-.562 9.124 1.822 14.812 9.571 16.338 11.903 9.967 15.23-.87 35.794-4.43 41.734-4.167 6.958-13.355 17.253-33.45 26.781-17.36 8.23-29.04 9.192-40.337 10.121-10.65.876-20.71 1.704-35.267 8.172-10.126 4.5-16.065 8.973-20.483 12.928 9.284.358 23.032-.972 58.424-12.016 36.263-11.315 54.464-16.995 62.468-23.431 14.908-11.99 21.59-26.293 26.96-37.786 4.177-8.94 7.666-16.41 13.73-19.778-15.277-8.752-33.39-17.802-49.22-20.905l-.243-.047c-2.302-.448-8.417-1.637-15.307-5.33-.696-.373-17.11-9.302-22.605-23.515-4.238-10.968.223-19.457 4.538-27.667 3.806-7.243 7.401-14.084 5.313-22.468-2.51-10.08-12.975-19.604-28.71-26.13-10.232-4.245-21.902-6.906-32.859-7.492-11.32-.607-21.129 1.09-27.622 4.775-.561.318-1.537.902-2.824 1.694 4.602.499 9.803 2.005 14.3 5.658 4.818 3.914 7.798 9.394 9.663 17.768 3.458 15.525 1.38 31.83-6.355 49.847-6.654 15.498-16.34 29.678-24.887 42.188-1.844 2.699-6.16 9.017-13.366 10.446-7.261 1.44-14.002-2.687-18.442-5.917-13.032-9.481-77.287-58.353-62.502-89.513 3.19-6.724 9.975-12.96 17.707-16.276.725-.311 1.448-.592 2.165-.846-12.005-3.58-26.17-7.313-41.509-10.142-32.477-5.992-48.78-9-66.726-1.97-6.175 2.42-10.88 5.297-15.86 8.343-7.123 4.356-14.489 8.861-27.174 12.848-10.958 3.444-22.502 5.4-34.311 5.813a.817.817 0 0 1-.853-.773.812.812 0 0 1 .794-.83c11.657-.408 23.05-2.338 33.864-5.736 12.49-3.925 19.767-8.376 26.805-12.68 5.044-3.086 9.809-6 16.12-8.472 18.395-7.206 34.856-4.17 67.648 1.88 16.393 3.025 31.442 7.072 43.96 10.87 7.673-2.029 14.541-1.125 18.319-.278 2.013.452 7.312 1.902 13.013 5.59 7.496 4.852 7.725 6.149 7.318 7.06-.77 1.721-3.93.732-17.197-3.738-5.732-1.93-13.017-4.385-21.48-6.962a33.78 33.78 0 0 0-4.233 1.491c-7.268 3.117-13.892 9.194-16.875 15.48-3.385 7.134-2.563 15.915 2.442 26.1 4.107 8.357 11.026 17.678 20.566 27.704 15.043 15.808 32.274 28.87 38.984 33.752 4.186 3.045 10.517 6.942 17.128 5.63 6.54-1.297 10.446-7.014 12.324-9.762 17.212-25.195 38.633-56.55 31.004-90.807-1.782-8.001-4.592-13.206-9.11-16.876-4.904-3.985-10.728-5.248-15.53-5.465a394.06 394.06 0 0 0-10.643 6.951c-8.95 6.055-14.508 10.405-17.83 13.004-3.711 2.904-4.593 3.594-5.444 2.792-.517-.487-.367-1.33-.18-2.01 1.231-4.46 9.269-17.836 24.267-21.478.772-.188 4.517-1.02 9.362-.874 2.243-1.406 3.93-2.426 4.749-2.89 13.61-7.723 39.665-6.62 61.956 2.627 16.456 6.825 26.991 16.495 29.665 27.228 2.232 8.962-1.672 16.392-5.448 23.576-4.343 8.263-8.444 16.068-4.462 26.371 5.282 13.666 21.183 22.315 21.857 22.676 6.667 3.574 12.602 4.727 14.836 5.162l.244.048c16.387 3.211 35.095 12.657 50.676 21.638a15.6 15.6 0 0 1 3.9-.958c7.01-.821 13.508 2.766 17.725 5.92 5.167 3.864 9.022 8.578 10.753 11.44 1.439 2.38 1.283 3.172.94 3.633-1.018 1.374-3.34.099-15.93-7.678-4.984-3.078-10.96-6.77-17.505-10.56-6.107 2.817-9.496 10.07-13.894 19.484-5.44 11.644-12.21 26.134-27.41 38.358-8.249 6.633-26.551 12.345-63.015 23.723-36.368 11.349-50.124 12.505-59.572 12.066-.348-.016-.687-.034-1.018-.052-.724.68-1.411 1.34-2.077 1.98-5.408 5.199-9.68 9.305-20.455 11.343-6.151 1.163-12.603 1.3-19.183.435 4.468 1.536 8.432 2.56 11.869 3.059 12.404 1.804 22.493.25 30.726-1.509 23.15-4.943 37.988-12.03 51.08-18.284 14.694-7.02 27.386-13.082 47.825-14.931 19.568-1.77 34.896 1.367 42.291 3.395 3.017.827 12.198 3.344 34.269 15.47 12.352 6.787 26.352 14.479 43.078 27.008 16.46 12.331 25.517 21.865 32.131 28.826 8.26 8.694 13.245 13.941 24.989 17.133 8.219 2.233 13.736 1.808 19.072 1.397 5.792-.447 11.78-.909 20.955 2.08 15.009 4.892 28.08 15.499 38.852 31.528a.79.79 0 0 1-.237 1.11.836.836 0 0 1-.45.131"/>
  </g>
</svg>
