<svg width="80" height="80" viewBox="0 0 80 80" fill="none" xmlns="http://www.w3.org/2000/svg">
<rect y="16" width="48" height="48" rx="6" fill="#F3F3F3"/>
<rect x="24" y="26.9248" width="29.3333" height="29.3333" rx="6" transform="rotate(-15 24 26.9248)" fill="url(#paint0_linear_340_5866)"/>
<path d="M48.8924 28.1759C47.9365 27.7347 46.804 28.152 46.3628 29.1079L41.6093 39.4073L36.8523 36.6889C35.9382 36.1666 34.7738 36.4842 34.2515 37.3982C33.7292 38.3123 34.0467 39.4767 34.9608 39.999L41.523 43.749C41.9869 44.014 42.5407 44.0723 43.0496 43.9095C43.5584 43.7467 43.9756 43.3778 44.1995 42.8927L49.8243 30.7055C50.2655 29.7496 49.8482 28.6171 48.8924 28.1759Z" fill="#2C7E34"/>
<path d="M1.19881e-06 52C7.57205e-07 57.6569 5.36405e-07 60.4853 1.75736 62.2426C3.51472 64 6.34315 64 12 64L16.6667 64C24.2091 64 27.9804 64 30.3235 61.6569C32.6667 59.3137 32.6667 55.5425 32.6667 48L32.6667 36L2.44784e-06 36L1.19881e-06 52Z" fill="url(#paint1_linear_340_5866)"/>
<path d="M9.8 57.68C8.936 57.68 8.2 57.5627 7.592 57.328C6.984 57.0933 6.488 56.768 6.104 56.352C5.72 55.9253 5.43733 55.424 5.256 54.848C5.08533 54.272 5 53.6427 5 52.96H8.584C8.584 53.1947 8.6 53.4133 8.632 53.616C8.67467 53.808 8.73867 53.9787 8.824 54.128C8.92 54.2667 9.04267 54.3787 9.192 54.464C9.352 54.5387 9.55467 54.576 9.8 54.576C10.056 54.576 10.2693 54.5173 10.44 54.4C10.6107 54.272 10.696 54.08 10.696 53.824C10.696 53.5467 10.616 53.3493 10.456 53.232C10.296 53.1147 10.0507 53.056 9.72 53.056H9.08V50.464H9.72C9.90133 50.464 10.056 50.4107 10.184 50.304C10.312 50.1867 10.376 50.016 10.376 49.792C10.376 49.568 10.3173 49.3973 10.2 49.28C10.0827 49.1627 9.92267 49.104 9.72 49.104C9.4 49.104 9.15467 49.2213 8.984 49.456C8.824 49.6907 8.744 50.112 8.744 50.72H5.16C5.16 49.1413 5.53333 47.9627 6.28 47.184C7.03733 46.3947 8.21067 46 9.8 46C11.336 46 12.4933 46.288 13.272 46.864C14.0507 47.4293 14.44 48.24 14.44 49.296C14.44 49.872 14.2853 50.368 13.976 50.784C13.6667 51.2 13.24 51.4987 12.696 51.68C13.3893 51.84 13.88 52.1333 14.168 52.56C14.456 52.9867 14.6 53.4933 14.6 54.08C14.6 54.6667 14.488 55.184 14.264 55.632C14.0507 56.08 13.736 56.4587 13.32 56.768C12.904 57.0667 12.3973 57.2907 11.8 57.44C11.2133 57.6 10.5467 57.68 9.8 57.68Z" fill="#888888"/>
<path d="M20.4462 57.68C19.7956 57.68 19.1769 57.584 18.5903 57.392C18.0036 57.2 17.4862 56.88 17.0382 56.432C16.5903 55.9733 16.2329 55.3707 15.9663 54.624C15.6996 53.8773 15.5662 52.9493 15.5662 51.84V51.52C15.5662 50.4853 15.6996 49.616 15.9663 48.912C16.2329 48.208 16.5903 47.6427 17.0382 47.216C17.4862 46.7787 18.0036 46.4693 18.5903 46.288C19.1769 46.096 19.7956 46 20.4462 46C21.0969 46 21.7156 46.096 22.3022 46.288C22.8889 46.4693 23.4062 46.7787 23.8542 47.216C24.3022 47.6427 24.6596 48.208 24.9263 48.912C25.1929 49.616 25.3263 50.4853 25.3263 51.52V51.84C25.3263 52.9493 25.1929 53.8773 24.9263 54.624C24.6596 55.3707 24.3022 55.9733 23.8542 56.432C23.4062 56.88 22.8889 57.2 22.3022 57.392C21.7156 57.584 21.0969 57.68 20.4462 57.68ZM20.4462 54.288C20.5636 54.288 20.6596 54.256 20.7343 54.192C20.8196 54.128 20.8889 54.0053 20.9423 53.824C20.9956 53.6427 21.0329 53.3973 21.0543 53.088C21.0863 52.768 21.1023 52.352 21.1023 51.84V51.52C21.1023 51.0933 21.0863 50.7413 21.0543 50.464C21.0329 50.1867 20.9956 49.968 20.9423 49.808C20.8889 49.648 20.8196 49.5413 20.7343 49.488C20.6596 49.424 20.5636 49.392 20.4462 49.392C20.3289 49.392 20.2276 49.424 20.1423 49.488C20.0676 49.5413 20.0036 49.648 19.9503 49.808C19.8969 49.968 19.8543 50.1867 19.8223 50.464C19.8009 50.7413 19.7902 51.0933 19.7902 51.52V51.84C19.7902 52.352 19.8009 52.768 19.8223 53.088C19.8543 53.3973 19.8969 53.6427 19.9503 53.824C20.0036 54.0053 20.0676 54.128 20.1423 54.192C20.2276 54.256 20.3289 54.288 20.4462 54.288Z" fill="#888888"/>
<path fill-rule="evenodd" clip-rule="evenodd" d="M0 39.9997V29.669C1.54365 29.333 3.65388 29.333 6.66674 29.333L22.0001 29.333C27.0284 29.333 29.5425 29.333 31.1046 30.8951C32.6667 32.4572 32.6667 34.9714 32.6667 39.9997L0 39.9997Z" fill="#F13E33"/>
<path fill-rule="evenodd" clip-rule="evenodd" d="M22 35.9997C20.8954 35.9997 20 35.1042 20 33.9997V27.333C20 26.2284 20.8954 25.333 22 25.333C23.1046 25.333 24 26.2284 24 27.333V33.9997C24 35.1042 23.1046 35.9997 22 35.9997Z" fill="#AD0000"/>
<path fill-rule="evenodd" clip-rule="evenodd" d="M14 35.9997C12.8954 35.9997 12 35.1042 12 33.9997V27.333C12 26.2284 12.8954 25.333 14 25.333C15.1045 25.333 16 26.2284 16 27.333V33.9997C16 35.1042 15.1045 35.9997 14 35.9997Z" fill="#AD0000"/>
<path fill-rule="evenodd" clip-rule="evenodd" d="M6 35.9997C4.89543 35.9997 4 35.1042 4 33.9997L4 27.333C4 26.2284 4.89543 25.333 6 25.333C7.10457 25.333 8 26.2284 8 27.333L8 33.9997C8 35.1042 7.10457 35.9997 6 35.9997Z" fill="#AD0000"/>
<defs>
<linearGradient id="paint0_linear_340_5866" x1="10.8464" y1="46.0646" x2="40.7124" y2="33.9565" gradientUnits="userSpaceOnUse">
<stop stop-color="#2C7E34"/>
<stop offset="1" stop-color="#ACDEB1"/>
</linearGradient>
<linearGradient id="paint1_linear_340_5866" x1="14" y1="46" x2="34.6667" y2="56.3333" gradientUnits="userSpaceOnUse">
<stop stop-color="#F3F3F3"/>
<stop offset="1" stop-color="#D0D0D0"/>
</linearGradient>
</defs>
</svg>
