<svg width="80" height="80" viewBox="0 0 80 80" fill="none" xmlns="http://www.w3.org/2000/svg">
<rect y="16" width="48" height="48" rx="6" fill="#E8F8F9"/>
<path d="M0 37.8924V31.3705C0.618003 30.6871 1.40723 29.9102 2.36828 28.9643L19.9983 11.6114C22.686 8.96595 24.0298 7.64322 25.6866 7.65635C27.3434 7.66947 28.6662 9.01332 31.3116 11.701L37.4824 17.9704C40.1279 20.6581 41.4506 22.0019 41.4375 23.6587C41.4244 25.3155 40.0805 26.6383 37.3928 29.2837L19.7628 46.6367C17.075 49.2822 15.7312 50.6049 14.0743 50.5918C12.4175 50.5786 11.0948 49.2347 8.44934 46.547L2.27861 40.2776C1.35907 39.3433 0.599355 38.5715 0 37.8924Z" fill="url(#paint0_linear_340_5880)"/>
<path d="M0 48.939V36.6302C0.481289 36.3446 1.01215 36.0381 1.59503 35.7016L23.0182 23.3329C26.2842 21.4473 27.9172 20.5045 29.5176 20.9333C31.118 21.3621 32.0608 22.9951 33.9464 26.2611L38.3448 33.8793C40.2304 37.1453 41.1733 38.7783 40.7444 40.3787C40.3156 41.9791 38.6826 42.9219 35.4166 44.8076L13.9933 57.1763C10.7273 59.0619 9.09431 60.0047 7.4939 59.5759C5.89349 59.1471 4.95069 57.5141 3.06509 54.248L0 48.939Z" fill="url(#paint1_linear_340_5880)"/>
<path fill-rule="evenodd" clip-rule="evenodd" d="M0 37.5212V52.0002C0 57.6571 0 60.4855 1.75736 62.2429C3.39629 63.8818 5.96678 63.9922 10.8943 63.9997H27.3333C31.1046 63.9997 32.9902 63.9997 34.1618 62.8281C35.3333 61.6565 35.3333 59.7709 35.3333 55.9997V45.333C35.3333 41.5618 35.3333 39.6762 34.1618 38.5046C32.9902 37.333 31.1046 37.333 27.3333 37.333H4.66667C2.61666 37.333 1.12383 37.333 0 37.5212Z" fill="url(#paint2_linear_340_5880)"/>
<path d="M27.3341 37.333H23.1574L21.5417 38.9943C17.6997 42.9447 15.7787 44.9199 15.7787 47.3743C15.7787 49.8287 17.6997 51.8039 21.5417 55.7543L29.549 63.9874C31.8955 63.9437 33.247 63.7436 34.1625 62.8281C35.3341 61.6565 35.3341 59.7709 35.3341 55.9997V45.333C35.3341 41.5618 35.3341 39.6762 34.1625 38.5046C32.991 37.333 31.1053 37.333 27.3341 37.333Z" fill="url(#paint3_linear_340_5880)"/>
<path fill-rule="evenodd" clip-rule="evenodd" d="M2.66663 57.2344C2.66663 56.1298 3.56206 55.2344 4.66663 55.2344L30.7972 55.2344C31.9018 55.2344 32.7972 56.1298 32.7972 57.2344C32.7972 58.3389 31.9018 59.2344 30.7972 59.2344L4.66663 59.2344C3.56206 59.2344 2.66663 58.3389 2.66663 57.2344Z" fill="#AD0000"/>
<path d="M8.99996 45.999H5.66663C4.00977 45.999 2.66663 47.3422 2.66663 48.999C2.66663 50.6559 4.00977 51.999 5.66663 51.999H8.99996C10.6568 51.999 12 50.6559 12 48.999C12 47.3422 10.6568 45.999 8.99996 45.999Z" fill="#FFD98D"/>
<defs>
<linearGradient id="paint0_linear_340_5880" x1="4.66667" y1="2.33284" x2="8.81222" y2="54.0287" gradientUnits="userSpaceOnUse">
<stop stop-color="#E3FFC7"/>
<stop offset="1" stop-color="#44ADB8"/>
</linearGradient>
<linearGradient id="paint1_linear_340_5880" x1="16.3333" y1="15.3328" x2="5.44809" y2="67.3809" gradientUnits="userSpaceOnUse">
<stop stop-color="#E3FFC7"/>
<stop offset="1" stop-color="#44ADB8"/>
</linearGradient>
<linearGradient id="paint2_linear_340_5880" x1="29.9523" y1="62.1752" x2="0.738147" y2="36.9855" gradientUnits="userSpaceOnUse">
<stop stop-color="#FF8144"/>
<stop offset="1" stop-color="#F13E33"/>
</linearGradient>
<linearGradient id="paint3_linear_340_5880" x1="29.4424" y1="66.5665" x2="18.9237" y2="38.3803" gradientUnits="userSpaceOnUse">
<stop stop-color="#FF8144"/>
<stop offset="1" stop-color="#FFC247"/>
</linearGradient>
</defs>
</svg>
