<svg width="80" height="80" viewBox="0 0 80 80" fill="none" xmlns="http://www.w3.org/2000/svg">
<rect y="16" width="48" height="48" rx="6" fill="#FBECCF"/>
<path fill-rule="evenodd" clip-rule="evenodd" d="M11.3954 64.0002C6.13934 63.9979 3.45098 63.9365 1.75738 62.2429C0.445069 60.9306 0.112729 59.021 0.0285645 55.7823L6.83139 30.3938C7.80746 26.7511 8.2955 24.9297 9.73038 24.1013C11.1653 23.2729 12.9866 23.7609 16.6294 24.737L34.66 29.5683C38.3027 30.5443 40.1241 31.0324 40.9525 32.4673C41.781 33.9021 41.2929 35.7235 40.3169 39.3662L40.3169 39.3663L33.7162 64.0002H11.3954Z" fill="#F1C87A"/>
<path d="M42.4673 63.7957C40.8493 64.0002 38.7617 64.0002 36 64.0002H12C11.1121 64.0002 10.2938 64.0002 9.5385 63.9934L9.50859 63.9762C6.24273 62.0906 4.60967 61.1477 4.18086 59.5473C3.75205 57.9469 4.69485 56.314 6.58045 53.048L23.5078 23.7289C25.3935 20.4629 26.3363 18.8299 27.9367 18.4011C29.5371 17.9723 31.1701 18.9151 34.436 20.8007L52.1487 31.0271C55.4146 32.9127 57.0476 33.8555 57.4765 35.4559C57.9053 37.0563 56.9625 38.6893 55.0769 41.9553L42.4673 63.7957Z" fill="#414141"/>
<path d="M32.1699 19.5174C30.3132 18.5143 29.1156 18.0849 27.9357 18.4011C26.3353 18.8299 25.3925 20.4629 23.5069 23.7289L6.57948 53.048C4.69387 56.314 3.75107 57.9469 4.17988 59.5473C4.49608 60.7274 5.46696 61.5499 7.26445 62.6565C7.27094 62.6453 7.27745 62.634 7.28396 62.6227L31.5863 20.5298C31.7891 20.1786 31.9837 19.8415 32.1699 19.5174Z" fill="#595959"/>
<path fill-rule="evenodd" clip-rule="evenodd" d="M35.1137 53.5997L35.2544 53.6606C38.1326 54.9074 41.2606 52.5072 40.8012 49.4043C40.7859 49.3009 40.7678 49.1996 40.7479 49.1018C42.6864 48.9068 44.5188 48.4136 46.1364 47.2925C46.7647 46.8577 47.5755 46.2964 48.1345 45.6733C49.0758 44.6242 49.4298 43.2078 48.9929 41.8537C48.5173 40.3802 47.2241 39.4869 45.7419 39.2357C45.0627 39.1207 44.248 39.1057 43.4428 39.1132C43.7469 37.4876 43.4836 35.3627 41.5621 34.2533C39.6015 33.1214 37.5885 34.0131 36.3373 35.1205C35.7623 34.2485 35.1918 33.4141 34.6422 32.8106C33.98 32.0834 32.5416 30.813 30.5128 31.4072C29.7978 31.6166 29.1275 32.0264 28.6159 32.6767C27.6109 33.9548 27.6309 35.6647 27.6162 37.2097C27.5979 39.0834 28.214 40.7954 29.1243 42.4131C28.9388 42.4782 28.7439 42.5575 28.5498 42.6545C26.2543 43.8008 25.6757 46.702 27.1428 48.6422C27.4656 49.069 27.8898 49.408 28.3511 49.6744C29.2579 50.1986 30.3092 50.8101 31.3854 51.4362C32.6274 52.1587 33.8694 52.8812 35.1137 53.5997ZM46.455 42.6727C46.7586 43.6134 45.9972 44.1422 44.4744 45.1998C42.6581 46.4613 40.9276 46.3255 38.8705 46.6101C37.7889 46.7598 37.5502 47.0877 37.7403 48.1629C37.8378 48.7147 38.0813 49.2404 38.1633 49.7949C38.3164 50.8292 37.2738 51.6293 36.3144 51.2137C35.1823 50.5601 33.9479 49.8419 32.7399 49.1391L32.7005 49.1162C31.6458 48.5026 30.6124 47.9014 29.6857 47.3657C29.5336 47.2778 29.3774 47.1759 29.2699 47.0338C28.7818 46.3883 28.9788 45.4209 29.7412 45.0402C30.3268 44.7478 31.0378 44.7559 31.6333 44.4873C32.4943 44.0989 32.6891 43.5836 32.3001 42.7228C31.4565 40.8558 30.2577 39.647 30.281 37.4179C30.303 35.302 30.3141 34.2441 31.2623 33.9664C32.2104 33.6886 32.982 34.8656 34.5251 37.2195C34.9317 37.8394 35.3675 38.6936 36.182 38.7643C36.8002 38.818 37.0114 38.1996 37.9511 37.2615C39.6552 35.5604 41.3836 36.5582 40.7624 38.8846C40.4137 40.1905 40.025 40.7199 40.4106 41.2373C40.9041 41.8994 41.8348 41.8066 42.5794 41.7937C44.9608 41.7525 46.1515 41.7319 46.455 42.6727Z" fill="url(#paint0_linear_340_5861)"/>
<path fill-rule="evenodd" clip-rule="evenodd" d="M20.7723 52.5883C21.1405 51.9506 21.9559 51.7321 22.5937 52.1003L35.0003 59.2632C35.638 59.6314 35.8565 60.4469 35.4883 61.0846C35.1201 61.7223 34.3047 61.9408 33.667 61.5726L21.2603 54.4097C20.6226 54.0415 20.4041 53.226 20.7723 52.5883Z" fill="url(#paint1_linear_340_5861)"/>
<defs>
<linearGradient id="paint0_linear_340_5861" x1="42.0805" y1="54.0919" x2="29.1991" y2="35.9088" gradientUnits="userSpaceOnUse">
<stop stop-color="#F1C87A"/>
<stop offset="1" stop-color="#FFE2AB"/>
</linearGradient>
<linearGradient id="paint1_linear_340_5861" x1="27.5465" y1="52.1802" x2="31.0439" y2="57.4453" gradientUnits="userSpaceOnUse">
<stop stop-color="#FFE2AB"/>
<stop offset="1" stop-color="#F1C87A"/>
</linearGradient>
</defs>
</svg>
